<?xml version="1.0" encoding="utf-8"?>
<!DOCTYPE svg PUBLIC "-//W3C//DTD SVG 1.0//EN" "http://www.w3.org/TR/2001/REC-SVG-20010904/DTD/svg10.dtd">
<svg version="1.0" xmlns="http://www.w3.org/2000/svg" width="4096px" height="4096px" viewBox="0 0 4096 4096" preserveAspectRatio="xMidYMid meet">
 <g fill="#740e17">
  <path d="M 1997.60 3522 c -42.80 -9.20 -82 -28.40 -190.80 -93.20 -54 -32.40 -96 -50.80 -134.40 -59.20 -17.60 -4 -66.40 -7.20 -146.40 -9.60 -134.40 -4 -158.80 -7.60 -205.20 -30.40 -33.60 -16.40 -73.20 -51.60 -98.80 -87.60 -9.60 -13.20 -34.80 -54.40 -56 -92 -74.40 -130 -91.60 -147.60 -222 -222 -134.80 -76.80 -172.80 -117.20 -196.40 -206 -7.20 -27.20 -8.80 -49.60 -11.60 -150 -4 -160.40 -10 -183.20 -78.80 -302 -64 -111.20 -80.40 -153.20 -84 -212 -4 -63.20 11.60 -108.40 76.80 -222 19.20 -33.60 42 -76 50.40 -93.60 26.40 -56.40 28 -67.60 31.60 -200.40 4.40 -153.60 12 -194 47.60 -248.40 27.20 -42.40 70.80 -76.40 166.40 -129.60 123.60 -68.80 152 -97.20 222 -220 18 -32 39.60 -68 47.20 -80 23.20 -35.20 70.80 -80.40 102.80 -96.80 49.60 -25.60 62.40 -27.60 202 -31.20 169.60 -4 182.80 -7.60 304.80 -81.20 122 -73.60 144.40 -82.80 213.20 -85.60 76.40 -3.60 110 8.40 227.20 80 129.20 79.20 128 78.80 290.80 82.80 145.60 3.60 177.60 8.80 226 35.60 57.60 32.40 91.60 72.80 153.60 183.60 69.60 124.80 81.20 135.60 255.20 236.40 70 40.40 117.20 84.80 141.60 133.20 23.20 46 28 76.80 31.60 211.20 2 67.20 5.20 130 7.60 140 8.80 39.60 26.40 77.60 75.60 161.60 58 100 76.80 152 76.80 212.40 0 60.80 -18 110 -78.80 216 -73.20 127.20 -76.40 138 -81.20 264 -6.80 179.60 -9.20 197.20 -34 248.80 -26 53.60 -62 85.60 -166 146.80 -148.80 88.40 -151.60 90.80 -245.20 250.80 -66.80 113.60 -110 153.20 -193.20 176 -27.20 7.20 -48.40 8.80 -149.60 12 -124.40 3.60 -145.20 6 -184.80 20 -29.60 10.40 -96.80 45.20 -144.40 74.40 -102.40 63.20 -176 83.20 -249.20 67.20 z  M3153.20 2048.40 C 3153.20 1438.80 2658.80 944.40 2049.20 944.40 1439.20 944.40 944.80 1438.80 944.80 2048.40 944.80 2658.40 1439.20 3152.40 2049.20 3152.40 2658.80 3152.40 3153.20 2658.40 3153.20 2048.40 Z M2170 3150 "/>
  <path d="M 1364 2632.40 c 0 -58.80 1.20 -80.40 5.20 -83.20 2.40 -2.40 19.20 -6 36.80 -8.80 17.60 -2.80 36.80 -5.60 43.20 -6.80 l 10.80 -2.40 0 -85.60 0 -85.60 -50 0 -50 0 0 16 0 16 -94 0 -94 0 0.80 -70.80 1.20 -71.20 93.20 -1.20 92.80 -0.80 0 16 0 16 50 0 50 0 0 -96 0 -96 -16.80 0 c -9.60 0 -32 1.20 -50 2.80 l -33.20 2.40 0 13.20 0 13.60 -94 0 -94 0 0.80 -70.80 1.20 -71.20 93.20 -1.20 92.80 -0.80 0 14 0 14 50 0 50 0 0 -94 0 -94 -50 0 -50 0 0 16 0 16 -94 0 -94 0 0.80 -70.80 1.20 -71.20 93.20 -1.20 92.80 -0.80 0 13.60 0 14 50 1.20 50 1.20 0 -84.40 0 -84.80 -24.80 -4.40 c -14 -2.40 -35.60 -5.20 -48 -6.80 l -23.20 -2.80 0 -83.20 0 -83.60 197.20 0 196.80 0 143.60 407.20 c 79.20 223.60 144.80 408 146.40 410 1.20 1.60 5.20 -5.60 9.20 -16 14 -40.80 161.60 -460 220 -625.20 l 61.60 -174 196.80 -1.20 196.40 -0.80 0 83.20 0 83.60 -34.80 4.80 c -19.60 2.40 -41.20 5.60 -48 6.80 l -13.20 2.40 0 45.60 0 45.60 49.60 0 50 0 1.20 -12.80 1.20 -13.20 93.20 -1.20 92.80 -0.80 -0.80 70.80 -1.20 71.20 -92 0 -92 0 -1.20 -14.80 -1.20 -15.20 -50 0 -49.60 0 0 74 0 74 49.60 0 50 0 1.20 -10.80 c 1.60 -14.80 13.60 -16.80 110.40 -16.80 l 76.80 -0.40 -0.80 71.20 -1.20 70.80 -92 0 -92 0 -1.20 -14.80 -1.20 -15.20 -50 0 -49.60 0 0 76 0 76 49.60 0 50 0 1.20 -12.80 c 1.20 -12.80 1.60 -13.20 25.20 -15.60 13.20 -1.60 55.20 -2.80 93.20 -3.20 l 68.80 -0.40 0 72 0 72 -92.80 -0.80 -93.20 -1.20 -1.20 -14.80 -1.20 -15.20 -50 0 -49.60 0 0 76 0 76 49.60 0 50 0 1.20 -12.80 1.20 -13.20 91.20 -2 c 50.40 -1.20 92.40 -1.20 93.20 -0.40 0.80 0.80 1.60 32.80 1.60 71.20 l 0 69.20 -56 0.80 c -30.80 0 -60.40 0.40 -66 0.40 -5.60 0 -22.40 -0.40 -38 -0.40 l -28 -0.80 0 -14 0 -14 -50 0 -50 0 0 45.20 0 45.60 48 7.20 48 7.20 0 83.60 0 83.20 -210 0 -210 0 0 -83.20 0 -82.80 44.80 -7.20 c 24.40 -3.60 44.80 -7.20 45.60 -7.60 2.40 -2.80 3.20 -739.20 0.40 -738 -1.60 0.40 -36 98.80 -76.40 218.80 -40.40 120 -96.80 286.40 -125.20 370 l -51.60 152 -100.80 1.20 c -55.60 0.40 -100.80 0.40 -100.80 -0.40 0 -0.80 -24.40 -73.20 -54.40 -161.20 -30 -87.60 -86.40 -254.80 -126 -371.60 -39.20 -116.40 -73.20 -212.40 -75.60 -213.20 -4 -1.60 -5.60 658.40 -1.20 711.60 l 2 30.40 44.40 6.80 c 24.80 3.60 46 8 48 10 1.60 1.60 2.40 38.80 2 82.80 l -1.20 79.60 -210.80 1.20 -211.20 0.80 0 -79.60 z "/>
 </g>
</svg>