<?xml version="1.0" encoding="utf-8"?>
<!DOCTYPE svg PUBLIC "-//W3C//DTD SVG 1.0//EN" "http://www.w3.org/TR/2001/REC-SVG-20010904/DTD/svg10.dtd">
<svg version="1.0" xmlns="http://www.w3.org/2000/svg" width="4096px" height="4096px" viewBox="0 0 4096 4096" preserveAspectRatio="xMidYMid meet">
 <g fill="#01ff7c">
  <path d="M980 2048 l0 -1020 220 0 220 0 0 119.60 0 120 -80.80 1.20 c-44.80 0.80 -83.60 2.80 -86 4.40 -4 2.80 -5.20 162.80 -5.20 779.20 l0 775.60 47.20 1.20 c25.60 0.40 64.40 0.40 86 -0.40 l38.80 -1.20 0 120 0 120.40 -220 0 -220 0 0 -1020z"/>
  <path d="M2676 2948.80 l0 -119.60 82.80 -0.80 c45.60 -0.40 83.60 -1.60 84 -2 0.80 -0.40 1.20 -350.80 1.20 -778.80 l0 -777.60 -84 -1.20 -84 -0.80 0 -120 0 -120 220 0 220 0 0 1020 0 1020 -220 0 -220 0 0 -119.20z"/>
  <path d="M354 2782.80 c-3.20 -8 -0.40 -312.80 3.20 -311.60 1.60 0.40 122.40 0.80 268.80 0.80 l266 0 0 158 0 158 -268 0 c-211.20 0 -268.80 -1.20 -270 -5.20z"/>
  <path d="M3206.80 2785.20 c-1.60 -1.20 -2.80 -72.40 -2.80 -158 l0 -155.20 268 0 268 0 0 158 0 158 -265.20 0 c-146 0 -266.80 -1.20 -268 -2.80z"/>
  <path d="M1858 2777.20 l-240 -1.20 142 -142 142 -142 112.40 0 c63.20 0 122.40 -2 135.60 -4.40 89.60 -16.40 142 -88.80 129.60 -179.20 -8.80 -62 -42.40 -102 -102.80 -120.40 -23.60 -7.20 -37.60 -8 -164.40 -8 -102.80 0 -140 1.20 -143.60 4.80 -3.60 3.60 -4.80 39.20 -4.80 134.80 l0 130 -156 156.40 -156 156 0 -706.80 c0 -564.80 1.20 -707.20 5.20 -707.20 2.40 0 72.80 68 156 151.20 l150.80 150.80 0 129.20 0 128.80 115.20 0 c90.40 0 120 -1.20 138.80 -6 49.20 -12.80 81.60 -38.80 101.60 -81.60 8.80 -19.60 10.40 -27.60 10.40 -62.40 0 -35.60 -1.20 -42.80 -11.20 -64 -14.40 -31.20 -38 -54.80 -68.40 -68.80 l-24.40 -11.20 -110.80 -2 -111.20 -2 -141.60 -141.60 c-78 -78 -141.20 -143.20 -140 -145.20 3.20 -4.80 493.20 -4 541.20 0.80 46.80 4.80 86 14.40 130.40 31.60 153.20 59.20 248 203.20 247.20 376.40 0 104.40 -32.80 180 -111.20 256.80 l-37.20 36.80 22.80 13.60 c79.60 47.20 142.40 128.80 164 214 38.80 150.80 -1.20 302 -106 403.20 -49.20 47.20 -98 77.20 -160 98 -72.40 24 -89.20 24.80 -455.60 22.80z"/>
  <path d="M354 2203.20 c-1.20 -2.80 -1.60 -74.40 -1.20 -159.20 l1.20 -154 268 0 268 0 0 158 0 158 -267.20 1.20 c-211.60 0.80 -267.60 0 -268.80 -4z"/>
  <path d="M3206.80 2205.20 c-1.20 -2 -1.60 -73.20 -1.20 -159.20 l0.40 -156 267.20 -1.20 266.80 -0.80 0 160 0 160 -265.60 0 c-146.40 0 -266.80 -1.20 -267.60 -2.80z"/>
  <path d="M352 1466 l0 -158 269.20 0.80 268.80 1.20 1.20 157.20 0.80 156.80 -270 0 -270 0 0 -158z"/>
  <path d="M3206.40 1466.80 l0.40 -156.80 266.40 -1.20 266.80 -0.80 0 158 0 158 -266.80 0 -267.20 0 0.40 -157.20z"/>
 </g>
</svg>