<?xml version="1.0" encoding="utf-8"?>
<!DOCTYPE svg PUBLIC "-//W3C//DTD SVG 1.0//EN" "http://www.w3.org/TR/2001/REC-SVG-20010904/DTD/svg10.dtd">
<svg version="1.0" xmlns="http://www.w3.org/2000/svg" width="4096px" height="4096px" viewBox="0 0 4096 4096" preserveAspectRatio="xMidYMid meet">
 <g fill="#fa6b10">
  <path d="M 982.80 3069.20 c -1.60 -1.20 -2.80 -461.20 -2.80 -1022 l 0 -1019.20 222 0 222 0 -0.80 121.20 -1.20 120.80 -84 2 -84 2 -1.20 777.20 -0.80 776.80 86 0 86 0 -0.80 121.20 -1.20 120.80 -218.40 1.20 c -120 0.40 -219.60 -0.40 -220.80 -2 z "/>
  <path d="M 2674.80 3069.20 c -1.60 -1.20 -2.80 -54 -2.80 -117.20 0 -83.60 1.20 -115.60 4.80 -119.20 3.60 -3.60 28 -4.80 86 -4.80 l 81.20 0 0 -780 0 -780 -84.80 -0.80 -85.20 -1.20 -1.20 -118.80 -0.80 -119.20 222 0 222 0 -0.80 1021.20 -1.20 1020.80 -218.40 1.20 c -120 0.40 -219.60 -0.40 -220.80 -2 z "/>
  <path d="M 1631.20 2761.20 c 8.80 -10.80 73.60 -76.40 144 -146 l 127.60 -127.20 117.60 0 c 90.80 0 123.60 -1.60 143.20 -6 50.40 -12 83.60 -38 104 -81.60 9.20 -19.60 10.40 -27.60 10.40 -62.40 0 -29.60 -2 -45.20 -7.60 -60 -16.40 -43.20 -43.20 -70.40 -84.80 -86 -20.40 -7.60 -30.80 -8 -166.80 -8 -107.60 0 -146.40 1.20 -150 4.80 -3.60 3.60 -4.80 39.20 -4.80 135.20 l 0 130 -153.20 153.20 c -84 84 -154 152.80 -156 152.80 -1.60 0 -2.80 -316.80 -2.80 -704 l 0 -704 8 0 c 5.60 0 58.40 49.60 156 146.40 l 148 146.80 0.80 128.40 1.20 128.40 118 1.20 c 108 0.80 120.40 0.40 144 -6.80 69.60 -21.20 102 -66 101.20 -140.40 -0.80 -56.40 -22.40 -98.40 -64 -122.80 -30.80 -18 -54.40 -21.20 -161.20 -21.20 l -98 0 -143.60 -143.60 c -84.40 -84.40 -142.40 -145.20 -140.80 -148 4 -6 498.40 -6 546.40 0 148.40 18.40 272.80 100.80 333.20 221.60 31.20 62.80 45.20 131.60 41.60 203.60 -2.80 52 -12.80 93.60 -32.80 136.80 -18.40 40.40 -39.20 68.40 -80.80 108 l -34 32.80 21.60 12 c 71.20 40.80 133.60 118.40 158.40 196.80 16.40 52.80 18.80 68.80 18.80 136 -0.40 59.20 -1.60 70 -11.20 106 -18.40 66 -41.20 108 -92.40 167.60 -52.40 60.80 -142.80 110 -239.60 130.40 -34.40 7.20 -55.60 8 -336 8 l -299.60 0 16 -18.80 z "/>
  <path d="M 771.20 2677.60 c -18.40 -17.20 -72 -68 -119.20 -113.20 -47.20 -44.80 -157.20 -149.60 -244 -232 -266 -253.20 -282 -268.80 -285.60 -276.80 -2 -4.40 -2 -10.80 0 -15.60 2 -4.40 68.40 -69.60 148 -144.80 79.60 -75.60 230.40 -219.20 335.20 -319.20 104.80 -100 194.80 -183.60 200.40 -185.60 6.80 -2.80 11.60 -2.40 15.60 1.60 5.60 4.40 6.40 24.40 6.40 158.80 l 0 154 -24.80 26 c -14 14.40 -93.60 91.20 -177.20 170.40 -83.60 79.20 -152.40 144.80 -153.20 146.40 -0.80 2.40 94.80 94.80 284.40 274.40 36.80 34.80 68 67.20 69.20 71.60 0.80 4.80 1.20 76.80 0.80 160.40 l -1.20 152 -10.80 1.20 c -8.80 1.20 -17.20 -4.40 -44 -29.60 z "/>
  <path d="M 3272.80 2703.20 c -3.60 -3.60 -4.80 -43.60 -4.80 -155.60 0 -83.20 1.20 -153.60 2.40 -156.80 1.20 -3.20 81.20 -81.20 178 -172.80 96.40 -92 175.60 -168.40 175.60 -169.60 0 -3.60 -75.60 -77.60 -204 -198.80 -62.80 -59.20 -122.40 -116 -132.80 -126.40 l -19.20 -18.80 0 -154.40 0 -154 9.60 -4.40 c 5.60 -2.80 12 -3.20 15.20 -1.20 3.60 2 59.20 54 124 115.60 64.80 61.60 201.20 191.20 303.60 287.60 240.80 228 255.60 242.80 255.60 253.60 0 4.80 -7.60 17.20 -16.80 27.60 -26.40 28.40 -309.60 301.60 -325.60 314 -14.40 10.80 -192.80 179.60 -286 270 -50.80 49.60 -62.80 56.40 -74.80 44.40 z "/>
 </g>
</svg>