<?xml version="1.0" encoding="utf-8"?>
<!DOCTYPE svg PUBLIC "-//W3C//DTD SVG 1.0//EN" "http://www.w3.org/TR/2001/REC-SVG-20010904/DTD/svg10.dtd">
<svg version="1.0" xmlns="http://www.w3.org/2000/svg" width="1024px" height="1024px" viewBox="0 0 1024 1024" preserveAspectRatio="xMidYMid meet">
 <g fill="#3ecfb7">
  <path d="M 245 512 l 0 -255 55.5 0 55.5 0 -0.2 30.2 -0.3 30.3 -19.9 0.3 c -12.7 0.1 -20.4 0.6 -21.3 1.3 -1.1 1 -1.3 35.1 -1.3 194.5 l 0 193.4 21.5 0 21.5 0 0 30 0 30 -55.5 0 -55.5 0 0 -255 z "/>
  <path d="M 668 737 l 0 -30 21.5 0 21.5 0 0 -195 0 -195 -21.5 0 -21.5 0 0 -30 0 -30 55.5 0 55.5 0 0 255 0 255 -55.5 0 -55.5 0 0 -30 z "/>
  <path d="M 440 658.5 l 36.5 -36.5 28.1 0 c 15.8 0 30.6 -0.5 33.9 -1.1 19 -3.5 30.2 -15.7 31.3 -34.2 1.2 -20.1 -9.6 -35.4 -28.4 -40.2 -5 -1.3 -12 -1.5 -40.5 -1.3 l -34.4 0.3 -0.3 33.5 -0.2 33.5 -39 39 -39 39 0 -176.8 c 0 -141.1 0.3 -176.7 1.3 -176.7 0.6 0 18.2 17 39 37.8 l 37.7 37.7 0 31.8 0 31.7 29 0 c 31.6 0 36.3 -0.5 45.3 -5.3 11.7 -6.1 17.1 -16 17.1 -31.4 0 -8.7 -0.2 -9.5 -3.9 -17 -3.1 -5.9 -5.2 -8.6 -9 -11.5 -9 -6.8 -10.8 -7.1 -41 -7.6 l -27 -0.3 -35.7 -35.7 c -19.7 -19.7 -35.8 -36.3 -35.8 -37 0 -1.6 124.1 -1.7 137 -0.2 45.5 5.6 79.5 34 90.7 75.6 2.4 8.8 2.7 11.7 2.7 26.4 0 15.1 -0.3 17.3 -2.7 25.3 -5.2 16.9 -11.8 27.4 -25.3 40.2 l -8.5 8.1 8.1 5.2 c 19.6 12.8 33.1 31.8 39.1 55 2.6 10 3.5 29 2 40.6 -5 37.3 -30 67.8 -66.6 81.1 -3.8 1.4 -7.9 3 -9 3.5 -1.1 0.5 -6.2 1.6 -11.4 2.4 -7.9 1.4 -21.3 1.6 -83.5 1.6 l -74.1 0 36.5 -36.5 z "/>
 </g>
</svg>