<?xml version="1.0" encoding="utf-8"?>
<!DOCTYPE svg PUBLIC "-//W3C//DTD SVG 1.0//EN" "http://www.w3.org/TR/2001/REC-SVG-20010904/DTD/svg10.dtd">
<svg version="1.0" xmlns="http://www.w3.org/2000/svg" width="1024px" height="1024px" viewBox="0 0 1024 1024" preserveAspectRatio="xMidYMid meet">
 <g fill="#0d1b31">
  <path d="M 0 512 l 0 -512 512 0 512 0 0 512 0 512 -512 0 -512 0 0 -512 z  m 353 225 l 0 -27 -21.5 0 -21.5 0 0 -196.4 c 0 -161.9 0.2 -196.5 1.3 -197.5 0.9 -0.7 8.6 -1.2 21.3 -1.3 l 19.9 -0.3 0.3 -27.2 0.2 -27.3 -52.5 0 -52.5 0 0 252 0 252 52.5 0 52.5 0 0 -27 z  m 423 -225 l 0 -252 -52.5 0 -52.5 0 0 27 0 27 21.5 0 21.5 0 0 198 0 198 -21.5 0 -21.5 0 0 27 0 27 52.5 0 52.5 0 0 -252 z  m -217.9 178.4 c 5.2 -0.8 10.3 -1.9 11.4 -2.4 1.1 -0.5 5.2 -2.1 9 -3.5 30.4 -11.1 53.7 -34.9 62.9 -64.1 12.6 -40.7 -2.5 -83.8 -37.4 -106.5 -7.3 -4.7 -8 -5.5 -8 -8.4 0 -2.8 1.1 -4.3 7.4 -9.9 12.9 -11.5 21.2 -24.5 26.3 -41.3 2.3 -7.7 2.6 -10.5 2.6 -22.3 0 -11.4 -0.4 -15 -2.6 -23.4 -11.1 -41.6 -45.2 -70 -90.7 -75.6 -5 -0.6 -32.9 -1 -68 -1 l -59.5 0 34 33.9 34 33.9 27 0.4 c 30.2 0.5 32 0.8 41 7.6 3.8 2.9 5.9 5.6 9 11.6 l 4 7.9 0 12.1 c -0.1 13.9 -1.9 20.2 -7.9 27.2 -4.1 4.8 -13.1 9.8 -20.4 11.3 -3.2 0.7 -17.7 1.1 -37.2 1.1 l -32 0 0 -31.8 0 -31.7 -36 -36 -36 -36 0 169 0 169 36 -36 36 -36 0.2 -33.5 0.3 -33.5 37.4 -0.3 c 41.6 -0.3 45 0.1 55 6.1 7.1 4.2 13.3 12.5 15.6 21 1.3 4.9 1.6 9.1 1.3 17.3 -0.3 9.3 -0.8 11.8 -3.2 17.1 -4.9 10.7 -14.7 17.7 -28.1 20.2 -3.3 0.6 -18.1 1.1 -33.9 1.1 l -28.1 0 -33.5 33.5 -33.5 33.5 68.1 0 c 56.8 0 69.6 -0.3 77.5 -1.6 z "/>
 </g>
 <g fill="#3ecfb7">
  <path d="M 245 512 l 0 -255 55.5 0 55.5 0 -0.2 30.2 -0.3 30.3 -19.9 0.3 c -12.7 0.1 -20.4 0.6 -21.3 1.3 -1.1 1 -1.3 35.1 -1.3 194.5 l 0 193.4 21.5 0 21.5 0 0 30 0 30 -55.5 0 -55.5 0 0 -255 z "/>
  <path d="M 668 737 l 0 -30 21.5 0 21.5 0 0 -195 0 -195 -21.5 0 -21.5 0 0 -30 0 -30 55.5 0 55.5 0 0 255 0 255 -55.5 0 -55.5 0 0 -30 z "/>
  <path d="M 440 658.5 l 36.5 -36.5 28.1 0 c 15.8 0 30.6 -0.5 33.9 -1.1 19 -3.5 30.2 -15.7 31.3 -34.2 1.2 -20.1 -9.6 -35.4 -28.4 -40.2 -5 -1.3 -12 -1.5 -40.5 -1.3 l -34.4 0.3 -0.3 33.5 -0.2 33.5 -39 39 -39 39 0 -176.8 c 0 -141.1 0.3 -176.7 1.3 -176.7 0.6 0 18.2 17 39 37.8 l 37.7 37.7 0 31.8 0 31.7 29 0 c 31.6 0 36.3 -0.5 45.3 -5.3 11.7 -6.1 17.1 -16 17.1 -31.4 0 -8.7 -0.2 -9.5 -3.9 -17 -3.1 -5.9 -5.2 -8.6 -9 -11.5 -9 -6.8 -10.8 -7.1 -41 -7.6 l -27 -0.3 -35.7 -35.7 c -19.7 -19.7 -35.8 -36.3 -35.8 -37 0 -1.6 124.1 -1.7 137 -0.2 45.5 5.6 79.5 34 90.7 75.6 2.4 8.8 2.7 11.7 2.7 26.4 0 15.1 -0.3 17.3 -2.7 25.3 -5.2 16.9 -11.8 27.4 -25.3 40.2 l -8.5 8.1 8.1 5.2 c 19.6 12.8 33.1 31.8 39.1 55 2.6 10 3.5 29 2 40.6 -5 37.3 -30 67.8 -66.6 81.1 -3.8 1.4 -7.9 3 -9 3.5 -1.1 0.5 -6.2 1.6 -11.4 2.4 -7.9 1.4 -21.3 1.6 -83.5 1.6 l -74.1 0 36.5 -36.5 z "/>
 </g>
</svg>